<svg width="100" height="4" viewBox="0 0 100 4" fill="none" xmlns="http://www.w3.org/2000/svg">
<rect opacity="0.15" width="100" height="4" rx="2" fill="black"/>
<path fill-rule="evenodd" clip-rule="evenodd" d="M52.4649 4C52.8052 3.41165 53 2.72857 53 2C53 1.27143 52.8052 0.588347 52.4649 0H98C99.1046 0 100 0.895431 100 2C100 3.10457 99.1046 4 98 4H52.4649ZM45.5351 4H18C16.8954 4 16 3.10457 16 2C16 0.895431 16.8954 0 18 0H45.5351C45.1948 0.588347 45 1.27143 45 2C45 2.72857 45.1948 3.41165 45.5351 4Z" fill="url(#paint0_linear_105_79)"/>
<circle cx="49" cy="2" r="2" fill="white"/>
<defs>
<linearGradient id="paint0_linear_105_79" x1="19" y1="0" x2="99.19" y2="0" gradientUnits="userSpaceOnUse">
<stop stop-color="#CDCF5C"/>
<stop offset="1" stop-color="#EF8835"/>
</linearGradient>
</defs>
</svg>
